<svg width="21" height="21" viewBox="0 0 21 21" fill="none" xmlns="http://www.w3.org/2000/svg">
<path fill-rule="evenodd" clip-rule="evenodd" d="M13.8211 13.0092H14.7244L20.4305 18.7267L18.7267 20.4305L13.0092 14.7244V13.821L12.7004 13.5009C11.3968 14.6215 9.70441 15.2962 7.86336 15.2962C3.75816 15.2962 0.430542 11.9686 0.430542 7.86335C0.430542 3.75815 3.75816 0.430534 7.86336 0.430534C11.9686 0.430534 15.2962 3.75815 15.2962 7.86335C15.2962 9.7044 14.6215 11.3968 13.5009 12.7004L13.8211 13.0092ZM2.71756 7.86335C2.71756 10.7107 5.01602 13.0092 7.86336 13.0092C10.7107 13.0092 13.0092 10.7107 13.0092 7.86335C13.0092 5.01601 10.7107 2.71756 7.86336 2.71756C5.01602 2.71756 2.71756 5.01601 2.71756 7.86335Z" fill="#5C5C5C"/>
</svg>
